<?xml version="1.0" encoding="UTF-8"?>
<svg width="24px" height="24px" viewBox="0 0 24 24" version="1.1" xmlns="http://www.w3.org/2000/svg" xmlns:xlink="http://www.w3.org/1999/xlink">
    <title>取消预售</title>
    <g id="dapp预售" stroke="none" stroke-width="1" fill="none" fill-rule="evenodd">
        <g id="管理预售-审核通过" transform="translate(-47.000000, -339.000000)">
            <g id="取消" transform="translate(35.000000, 339.000000)">
                <g id="取消预售" transform="translate(12.000000, 0.000000)">
                    <rect id="矩形" x="0" y="0" width="24" height="24"></rect>
                    <path d="M12,0 C18.615199,0 24,5.38480097 24,12 C24,18.615199 18.615199,24 12,24 C5.38480097,24 0,18.615199 0,12 C0,5.38480097 5.38480097,0 12,0 Z M8.20747889,7.17973462 C7.91797346,6.89022919 7.46924005,6.89022919 7.17973462,7.17973462 C6.89022919,7.46924005 6.89022919,7.91797346 7.17973462,8.20747889 L7.17973462,8.20747889 L10.969,12.003 L7.17973462,15.7925211 C6.91654787,16.0557079 6.8926218,16.450488 7.10795641,16.7376008 L7.17973462,16.8202654 C7.46924005,17.0952955 7.93244873,17.0952955 8.20747889,16.8202654 L8.20747889,16.8202654 L11.995,13.031 L15.7780458,16.8202654 C16.0412326,17.0834521 16.4360127,17.1073782 16.7231255,16.8920436 L16.8057901,16.8202654 C17.0952955,16.53076 17.0952955,16.0675513 16.8057901,15.7780458 L16.8057901,15.7780458 L13.027,12 L16.8057901,8.22195416 C17.0689769,7.95876741 17.0929029,7.56398728 16.8775683,7.27687446 L16.8057901,7.19420989 C16.5162847,6.90470446 16.0675513,6.90470446 15.7780458,7.19420989 L15.7780458,7.19420989 L12,10.972 Z" id="形状" fill="#E4E5E6" fill-rule="nonzero"></path>
                </g>
            </g>
        </g>
    </g>
</svg>