<?xml version="1.0" encoding="UTF-8"?>
<svg width="24px" height="24px" viewBox="0 0 24 24" version="1.1" xmlns="http://www.w3.org/2000/svg" xmlns:xlink="http://www.w3.org/1999/xlink">
    <title>变更收款地址</title>
    <g id="dapp预售" stroke="none" stroke-width="1" fill="none" fill-rule="evenodd">
        <g id="管理预售-审核通过" transform="translate(-302.000000, -339.000000)">
            <g id="变更地址" transform="translate(278.000000, 339.000000)">
                <g id="变更收款地址" transform="translate(24.000000, 0.000000)">
                    <rect id="矩形" x="0" y="0" width="24" height="24"></rect>
                    <path d="M12,0 C5.372583,0 0,5.372583 0,12 C0,18.627417 5.372583,24 12,24 C18.627417,24 24,18.627417 24,12 C24,8.81740212 22.7357179,5.76515517 20.4852814,3.51471863 C18.2348448,1.26428208 15.1825979,0 12,0 Z M18.125,11.3 C18.4149492,11.3 18.65,11.5350508 18.65,11.825 C18.65,15.5943436 15.5943439,18.65 11.825,18.65 C9.58470674,18.65 7.63239987,17.5712083 6.40000092,15.9113415 L6.40000092,15.9113415 L6.400002,17.425 C6.40000217,17.7149492 6.1649519,17.95 5.87500234,17.95 C5.58505278,17.95 5.35,17.7149499 5.35,17.425 L5.35,17.425 L5.35,14.6250003 C5.35,14.4854951 5.40552363,14.3517261 5.50431294,14.2532258 C5.60310259,14.1547252 5.73703356,14.0995934 5.87653809,14.1000023 L5.87653809,14.1000023 L6.19162465,14.1009256 L8.67653809,14.1082055 C8.96648631,14.1090549 9.20084715,14.344793 9.19999766,14.6347412 C9.19914818,14.9246894 8.96341014,15.1590503 8.67346191,15.1582011 L8.67346191,15.1582011 L7.1478776,15.1537314 C8.18624616,16.6367139 9.87887034,17.6 11.825,17.6 C15.0144442,17.6 17.6,15.0144445 17.6,11.825 C17.6,11.5350508 17.8350508,11.3 18.125,11.3 Z M11.825,5 C14.0652929,5 16.0176,6.07879155 17.2499987,7.73865814 L17.2499987,7.73865814 L17.2499973,6.225 C17.2499973,5.93505086 17.4850481,5.70000025 17.7749973,5.7 C18.0649479,5.69999979 18.3,5.93505011 18.3,6.225 L18.3,6.225 L18.3,9.02499967 C18.3,9.16450486 18.2444767,9.29827394 18.1456867,9.3967742 C18.0468967,9.49527478 17.9129658,9.55040655 17.7734619,9.54999766 L17.7734619,9.54999766 L17.4583759,9.54907441 L14.9734619,9.54179454 C14.683514,9.54094505 14.4491529,9.30520701 14.450002,9.01525879 C14.4508518,8.72531056 14.6865902,8.49094973 14.9765381,8.49179888 L14.9765381,8.49179888 L16.5021217,8.49626861 C15.4637528,7.01328607 13.7711293,6.05 11.825,6.05 C8.63555551,6.05 6.05,8.63555551 6.05,11.825 C6.05,12.1149492 5.81494948,12.35 5.525,12.35 C5.2350505,12.35 5,12.1149492 5,11.825 C5,8.05565639 8.05565639,5 11.825,5 Z" id="形状" fill="#C8C9CC" fill-rule="nonzero"></path>
                </g>
            </g>
        </g>
    </g>
</svg>