<?xml version="1.0" encoding="UTF-8"?>
<svg width="19px" height="21px" viewBox="0 0 19 21" version="1.1" xmlns="http://www.w3.org/2000/svg" xmlns:xlink="http://www.w3.org/1999/xlink">
    <title>discord</title>
    <g id="dapp预售" stroke="none" stroke-width="1" fill="none" fill-rule="evenodd">
        <g id="项目详情" transform="translate(-115.000000, -339.000000)" fill="#C1C1C1" fill-rule="nonzero">
            <g id="社交账号" transform="translate(16.000000, 339.000000)">
                <g id="discord" transform="translate(99.000000, 0.000000)">
                    <path d="M16.0681618,3.14736119e-16 C17.2304671,3.14736119e-16 18.1801556,0.910944962 18.1999998,2.04773621 L18.1999998,20.222222 L15.9642158,18.3011109 L14.7055243,17.1690445 L13.3740705,15.9651608 L13.9259293,17.8361888 L2.13278296,17.8361888 C0.968587751,17.8361888 0.0198442366,16.9242989 0,15.7884526 L0,2.08269987 C0,0.94212874 0.937403929,0.0188992655 2.09592937,3.14736119e-16 L16.0681618,3.14736119e-16 Z M7.61262714,4.83348905 L7.50868112,4.71158874 L7.44914841,4.71158874 C7.16565932,4.72103838 5.90413285,4.81269984 4.58590856,5.77372787 L4.54433017,5.85026992 C4.30147452,6.30763233 3.08908615,8.73807882 3.08908615,11.6684111 L3.11082033,11.7014848 C3.25728969,11.9207164 4.16917962,13.1406644 6.26038416,13.204922 L6.56749733,12.840166 C6.68845267,12.6946416 6.82925227,12.5245481 6.95776733,12.3657943 C5.74537898,12.0133228 5.224704,11.3027102 5.14816194,11.1883696 L5.13776735,11.1732501 L5.18029071,11.2006541 C5.22753889,11.229948 5.31258562,11.281921 5.42881614,11.3442886 C5.43921074,11.3546832 5.44960535,11.3650778 5.47039454,11.3754724 C5.50157834,11.3943716 5.53276214,11.4057112 5.56489091,11.4255554 C5.82381095,11.5673 6.08462092,11.6788057 6.32275176,11.7695222 C6.74987532,11.931111 7.25921074,12.0926998 7.85170292,12.2042055 C8.71291282,12.36491 9.59561359,12.3735451 10.4598026,12.2297195 L10.5448493,12.2146001 C11.0626113,12.1268317 11.5688386,11.9810179 12.0539563,11.7799168 C12.4177673,11.6476219 12.8231567,11.4557943 13.2493353,11.1826998 L13.2323259,11.2082138 C13.1331047,11.3499583 12.5888057,12.0511214 11.3669677,12.3865835 L11.5389511,12.5954204 C11.801651,12.9129282 12.0539563,13.204922 12.0539563,13.204922 C14.3521078,13.1340497 15.2356489,11.6684111 15.2356489,11.6684111 C15.2356489,8.41206638 13.7388265,5.77372787 13.7388265,5.77372787 C12.450841,4.834434 11.2157735,4.72481822 10.8963758,4.71347866 L10.8160539,4.71158874 L10.6705295,4.87317752 C12.2382242,5.33998955 13.0612875,5.98823463 13.2285461,6.12997915 L13.2597299,6.15832806 C12.2879058,5.63808605 11.2256113,5.30836422 10.1300103,5.18690544 C9.43104767,5.11218308 8.72575879,5.11915986 8.02841113,5.20769465 C7.96604353,5.20769465 7.9150155,5.21714429 7.85170292,5.22659392 L7.79311518,5.23320867 C7.39906534,5.27100722 6.54859806,5.41275177 5.49118374,5.86444438 L5.33998955,5.93248176 C5.15099683,6.01941841 5.0139771,6.08840076 4.93932498,6.12525434 L4.87790233,6.15738311 C4.87790233,6.15738311 5.7236448,5.37495322 7.55687427,4.84860845 L7.61357208,4.83348905 L7.61262714,4.83348905 Z M7.21763232,8.48293863 C7.81012453,8.48293863 8.2892211,8.98849419 8.27882651,9.60555544 C8.27882651,10.2226167 7.81012453,10.7281723 7.21763232,10.7281723 C6.63553471,10.7281723 6.15643814,10.2226167 6.15643814,9.60555544 C6.15643814,8.98849419 6.62514012,8.48293863 7.21763232,8.48293863 L7.21763232,8.48293863 Z M11.0135513,8.48293863 C11.6060435,8.48293863 12.0747455,8.98849419 12.0747455,9.60555544 C12.0747455,10.2226167 11.6060435,10.7281723 11.0135513,10.7281723 C10.4314537,10.7281723 9.95235711,10.2226167 9.95235711,9.60555544 C9.95235711,8.98849419 10.4210591,8.48293863 11.0135513,8.48293863 L11.0135513,8.48293863 Z" id="形状"></path>
                </g>
            </g>
        </g>
    </g>
</svg>