<?xml version="1.0" encoding="UTF-8"?>
<svg width="70px" height="62px" viewBox="0 0 70 62" version="1.1" xmlns="http://www.w3.org/2000/svg" xmlns:xlink="http://www.w3.org/1999/xlink">
    <title>已完成</title>
    <g id="dapp预售" stroke="none" stroke-width="1" fill="none" fill-rule="evenodd">
        <g id="已结束" transform="translate(-274.000000, -232.000000)">
            <g id="编组-6" transform="translate(16.000000, 233.000000)">
                <g id="已完成" transform="translate(293.009935, 30.376532) rotate(-30.000000) translate(-293.009935, -30.376532) translate(263.000000, 13.000000)">
                    <g id="编组-14" transform="translate(13.000000, 0.000000)">
                        <g id="编组-11" stroke="#3F80F7" stroke-linecap="round" stroke-linejoin="round">
                            <path d="M1.00036797,25.0354795 C3.83143716,30.7916978 9.7542491,34.753065 16.6022879,34.753065 C23.4719403,34.753065 29.4105163,30.7666528 32.2309215,24.9809229 M32.1802486,9.66906252 C29.3398172,3.9391169 23.4310676,0 16.6022879,0 C9.76211493,0 3.84504457,3.95227211 1.01013572,9.69775741" id="形状"></path>
                            <path d="M29.2403603,9.64295619 C26.6349349,5.391632 21.9458706,2.55537242 16.5943624,2.55537242 C11.1679522,2.55537242 6.42265936,5.4715827 3.84019302,9.82229415 M3.98398799,25.1679384 C6.59639082,29.387134 11.2671561,32.1976926 16.5943624,32.1976926 C21.9827405,32.1976926 26.6995152,29.3222168 29.2939143,25.0220376" id="形状" stroke-width="0.5"></path>
                        </g>
                        <rect id="矩形" fill="#B4CEFB" x="6.19403189" y="9.00950093" width="20.4429794" height="1"></rect>
                        <g id="编组-12" transform="translate(8.320630, 25.619555)" fill="#3F80F7">
                            <polygon id="路径" transform="translate(13.836178, 2.102687) rotate(-251.000000) translate(-13.836178, -2.102687) " points="14.0831151 1.1580294 13.1557013 0.445243391 13.1515614 1.61367246 12.1830364 2.27040758 13.2985105 2.63832036 13.6272921 3.76013034 14.3188385 2.81586887 15.4893196 2.84866423 14.802093 1.89929086 15.1985893 0.802680377 14.0831151 1.15799341"></polygon>
                            <polygon id="路径" transform="translate(8.171440, 3.742805) rotate(-8.000000) translate(-8.171440, -3.742805) " points="8.70129566 3.1993054 8.25936833 2.11554667 7.66602797 3.12543485 6.50083884 3.21003319 7.27910757 4.08337605 7.002057 5.21886577 8.07415197 4.75051496 9.0713324 5.37006281 8.9539387 4.20487367 9.84204128 3.4488885 8.70129566 3.1993054"></polygon>
                            <polygon id="路径" transform="translate(2.038844, 2.562962) rotate(-345.000000) translate(-2.038844, -2.562962) " points="1.52590805 3.14080481 2.08119716 4.17384054 2.56545965 3.1058495 3.71797704 2.89978954 2.85295001 2.11090102 3.0117069 0.952083762 1.9923869 1.52843245 0.939119566 1.01875445 1.17383496 2.16266801 0.359710936 3.00973139 1.52590805 3.14080481"></polygon>
                        </g>
                        <g id="编组-12备份" transform="translate(16.291396, 6.436717) scale(1, -1) translate(-16.291396, -6.436717) translate(8.320630, 3.643352)" fill="#3F80F7">
                            <polygon id="路径" transform="translate(13.836178, 2.102687) rotate(-251.000000) translate(-13.836178, -2.102687) " points="14.0831151 1.1580294 13.1557013 0.445243391 13.1515614 1.61367246 12.1830364 2.27040758 13.2985105 2.63832036 13.6272921 3.76013034 14.3188385 2.81586887 15.4893196 2.84866423 14.802093 1.89929086 15.1985893 0.802680377 14.0831151 1.15799341"></polygon>
                            <polygon id="路径" transform="translate(8.171440, 3.742805) rotate(-8.000000) translate(-8.171440, -3.742805) " points="8.70129566 3.1993054 8.25936833 2.11554667 7.66602797 3.12543485 6.50083884 3.21003319 7.27910757 4.08337605 7.002057 5.21886577 8.07415197 4.75051496 9.0713324 5.37006281 8.9539387 4.20487367 9.84204128 3.4488885 8.70129566 3.1993054"></polygon>
                            <polygon id="路径" transform="translate(2.038844, 2.562962) rotate(-345.000000) translate(-2.038844, -2.562962) " points="1.52590805 3.14080481 2.08119716 4.17384054 2.56545965 3.1058495 3.71797704 2.89978954 2.85295001 2.11090102 3.0117069 0.952083762 1.9923869 1.52843245 0.939119566 1.01875445 1.17383496 2.16266801 0.359710936 3.00973139 1.52590805 3.14080481"></polygon>
                        </g>
                        <rect id="矩形备份-2" fill="#B4CEFB" x="6.19403189" y="25.3392214" width="20.4429794" height="1"></rect>
                    </g>
                    <text font-family="PingFangSC-Regular, PingFang SC" font-size="9" font-weight="normal" line-spacing="16" fill="#3F80F7">
                        <tspan x="16" y="19">已完成</tspan>
                    </text>
                    <g id="编组-16" transform="translate(45.250262, 12.554166)" fill="#3F80F7">
                        <rect id="矩形" x="0" y="0" width="14.7696069" height="1" rx="0.5"></rect>
                        <rect id="矩形备份-3" x="0" y="2.95392138" width="11.0772052" height="1" rx="0.5"></rect>
                        <rect id="矩形备份-5" x="0" y="5.90784275" width="7.38480344" height="1" rx="0.5"></rect>
                        <rect id="矩形备份-6" x="0" y="8.86176413" width="2.95392138" height="1" rx="0.5"></rect>
                    </g>
                    <g id="编组-16" transform="translate(7.384803, 17.354288) scale(-1, 1) translate(-7.384803, -17.354288) translate(0.000000, 12.554166)" fill="#3F80F7">
                        <rect id="矩形" x="0" y="0" width="14.7696069" height="1" rx="0.5"></rect>
                        <rect id="矩形备份-3" x="0" y="2.95392138" width="11.0772052" height="1" rx="0.5"></rect>
                        <rect id="矩形备份-5" x="0" y="5.90784275" width="7.38480344" height="1" rx="0.5"></rect>
                        <rect id="矩形备份-6" x="0" y="8.86176413" width="2.95392138" height="1" rx="0.5"></rect>
                    </g>
                </g>
            </g>
        </g>
    </g>
</svg>