<?xml version="1.0" encoding="UTF-8"?>
<svg width="24px" height="24px" viewBox="0 0 24 24" version="1.1" xmlns="http://www.w3.org/2000/svg" xmlns:xlink="http://www.w3.org/1999/xlink">
    <title>提前完成</title>
    <g id="dapp预售" stroke="none" stroke-width="1" fill="none" fill-rule="evenodd">
        <g id="管理预售-审核通过" transform="translate(-132.000000, -339.000000)">
            <g id="完成" transform="translate(120.000000, 339.000000)">
                <g id="提前完成" transform="translate(12.000000, 0.000000)">
                    <rect id="矩形" x="0" y="0" width="24" height="24"></rect>
                    <path d="M12,0 C18.6169412,0 24,5.38305881 24,12 C24,18.6169412 18.6169412,24 12,24 C5.38305881,24 0,18.6169412 0,12 C0,5.38305881 5.38305881,0 12,0 Z M17.7734118,8.4642353 C17.4775171,8.17496804 17.0031496,8.18034062 16.7138824,8.4762353 L16.7138824,8.4762353 L10.6418824,14.6837647 L7.28047059,11.3237647 C7.0910778,11.1343719 6.81503179,11.0604056 6.55631641,11.1297282 C6.29760104,11.1990507 6.09552134,11.4011304 6.02619876,11.6598458 C5.95687619,11.9185612 6.0308425,12.1946072 6.2202353,12.384 L6.2202353,12.384 L10.1167059,16.2804706 C10.2579434,16.4204434 10.4486818,16.4990722 10.6475294,16.4992941 L10.6475294,16.4992941 C10.8516776,16.4988257 11.0429908,16.4179246 11.1825882,16.2748235 L11.1825882,16.2748235 L17.7854118,9.5237647 C18.074679,9.22787003 18.0693064,8.75350255 17.7734118,8.4642353 Z" id="形状" fill="#C8C9CC" fill-rule="nonzero"></path>
                </g>
            </g>
        </g>
    </g>
</svg>