<?xml version="1.0" encoding="UTF-8"?>
<svg width="18px" height="18px" viewBox="0 0 18 18" version="1.1" xmlns="http://www.w3.org/2000/svg" xmlns:xlink="http://www.w3.org/1999/xlink">
    <title>tg</title>
    <g id="dapp预售" stroke="none" stroke-width="1" fill="none" fill-rule="evenodd">
        <g id="管理预售-审核通过" transform="translate(-87.000000, -580.000000)" fill-rule="nonzero">
            <g id="tg" transform="translate(87.000000, 580.000000)">
                <path d="M0,9 C0,13.9705627 4.02943725,18 9,18 C13.9705627,18 18,13.9705627 18,9 C18,4.02943725 13.9705627,0 9,0 C4.02943725,0 0,4.02943725 0,9 Z" id="路径" fill="#1296DB"></path>
                <path d="M13.6272414,5.5862069 L12.1282759,12.662069 C12.0165517,13.1617241 11.7217241,13.2827586 11.3027586,13.05 L9.01862069,11.367931 L7.91689655,12.4137931 C7.8068692,12.5556466 7.63710626,12.638234 7.45758621,12.6372414 L7.62206897,10.3127586 L11.852069,6.51724138 C12.0382759,6.35275862 11.8148276,6.26275862 11.5665517,6.42413793 L6.33413793,9.70448276 L4.08413793,9 C3.5937931,8.84482759 3.58448276,8.50965517 4.18344828,8.2737931 L12.9941379,4.87862069 C13.4037931,4.72655172 13.7606897,4.96551724 13.6272414,5.5862069 L13.6272414,5.5862069 Z" id="路径" fill="#FFFFFF"></path>
            </g>
        </g>
    </g>
</svg>