<?xml version="1.0" encoding="UTF-8"?>
<svg width="20px" height="17px" viewBox="0 0 20 17" version="1.1" xmlns="http://www.w3.org/2000/svg" xmlns:xlink="http://www.w3.org/1999/xlink">
    <title>Twitter</title>
    <g id="dapp预售" stroke="none" stroke-width="1" fill="none" fill-rule="evenodd">
        <g id="项目详情" transform="translate(-16.000000, -341.000000)" fill="#C1C1C1" fill-rule="nonzero">
            <g id="社交账号" transform="translate(16.000000, 339.000000)">
                <g id="Twitter" transform="translate(0.000000, 2.000000)">
                    <path d="M20,1.9230032 C19.2509969,2.25501007 18.4565368,2.47309053 17.643,2.57000319 C18.5002673,2.05752536 19.1418282,1.25068695 19.448,0.300003199 C18.642279,0.777539837 17.7609557,1.11403895 16.842,1.29500319 C16.0659035,0.46745664 14.9815294,-0.00141297433 13.847,8.52651282e-16 C12.5942749,-0.000522336166 11.4099445,0.571278508 10.6312521,1.55258299 C9.85255957,2.53388747 9.56483163,3.81716736 9.85,5.03700319 C6.55069098,4.87165839 3.47669631,3.31339717 1.39300001,0.750003198 C0.300820269,2.62417402 0.857463173,5.02475131 2.66300001,6.22700319 C2.01100295,6.20736185 1.37320087,6.03179483 0.803000015,5.71500319 L0.803000015,5.76600319 C0.803326886,7.71947526 2.18022289,9.4021158 4.095,9.78900319 C3.49071973,9.9531183 2.85693977,9.97706033 2.24200001,9.85900318 C2.77908702,11.5306806 4.31947158,12.6760226 6.075,12.7090032 C4.621318,13.8491292 2.82644908,14.4672601 0.979000007,14.4640032 C0.647000015,14.4640032 0.321,14.4440032 8.52651282e-16,14.4070032 C1.87632836,15.6122927 4.05990439,16.2520908 6.29000001,16.2500083 C13.838,16.2500083 17.964,9.99900319 17.964,4.5780032 C17.964,4.40000319 17.961,4.22300319 17.953,4.0470032 C18.7563987,3.46658054 19.4496255,2.74727735 20,1.9230032" id="路径"></path>
                </g>
            </g>
        </g>
    </g>
</svg>