<?xml version="1.0" encoding="UTF-8"?>
<svg width="24px" height="25px" viewBox="0 0 24 25" version="1.1" xmlns="http://www.w3.org/2000/svg" xmlns:xlink="http://www.w3.org/1999/xlink">
    <title>提现</title>
    <g id="dapp预售" stroke="none" stroke-width="1" fill="none" fill-rule="evenodd">
        <g id="管理预售-审核通过" transform="translate(-217.000000, -339.000000)">
            <g id="提现" transform="translate(217.000000, 339.000000)">
                <rect id="矩形" x="0" y="0" width="24" height="24"></rect>
                <path d="M21.7499888,0 L2.25001119,0 C1.00926779,0 0,1.00929539 0,2.25001119 L0,6.75000603 C0,7.99074944 1.00926782,9.00001723 2.25001119,9.00001723 L2.88281047,9.00001723 L2.88281047,21.8466783 C2.88281047,23.0873941 3.89207829,24.0966895 5.13282166,24.0966895 L18.8671783,24.0966895 C20.1079217,24.0966895 21.1171895,23.0873941 21.1171895,21.8466783 L21.1171895,8.99998965 L21.7499888,8.99998965 C22.9907322,8.99998965 24,7.99072183 24,6.74997845 L24,2.25001119 C24,1.00929539 22.9907322,0 21.7499888,0 Z M11.5085356,9 C11.8415416,9 12.1169386,9.25935363 12.136902,9.59176071 L12.136902,10.5292154 L12.2320061,10.5518593 C12.5852499,10.6356414 12.9169821,10.7760332 13.2226738,10.9685058 C13.572521,11.1870188 13.772919,11.3896811 13.8623621,11.4915784 C14.081918,11.7534139 14.0514917,12.1428169 13.7939313,12.3673725 C13.5363708,12.5919282 13.1464543,12.5690038 12.916982,12.3158139 C12.8099632,12.2056951 12.6889104,12.1101471 12.5569451,12.0316338 C12.2453608,11.8307294 11.88267,11.7234546 11.5119322,11.7225455 C11.0771706,11.7225455 10.6775069,11.8776557 10.4454076,12.1369277 C10.3136071,12.2712 10.2452522,12.455264 10.2574637,12.6430173 C10.300487,13.0347556 10.6322192,13.320068 11.6772322,13.8612556 L11.9172568,13.9846645 C12.7199807,14.4013111 13.1683286,14.6956809 13.4683594,14.9991083 C13.7899018,15.3263117 13.9518052,15.6806877 14.0072827,16.1822486 C14.0616279,16.6815451 13.9144429,17.1627266 13.5804464,17.5737122 C13.2310259,17.9879071 12.7580211,18.2791701 12.2308739,18.4047409 L12.136902,18.4285169 L12.136902,19.3716326 C12.1372032,19.5383779 12.0710973,19.6983804 11.9531904,19.8162874 C11.8352834,19.9341943 11.6752809,20.0003002 11.5085356,20 C11.163334,19.9981486 10.8837755,19.7190947 10.8813014,19.373897 L10.8813014,18.4364422 L10.7861973,18.4126662 C10.4349856,18.3302013 10.1001094,18.1893619 9.79552954,17.9960197 C9.55798228,17.8537198 9.34248065,17.6775044 9.15584123,17.4729471 C8.92823487,17.211575 8.95560744,16.8151796 9.21697959,16.5875732 C9.47835174,16.3599668 9.87474714,16.3873394 10.1023535,16.6487116 C10.1544343,16.7087177 10.2812398,16.8196725 10.4612583,16.9328917 C10.7895939,17.1378184 11.1405733,17.2408478 11.5062712,17.2408478 C11.942165,17.2408478 12.3406965,17.0857375 12.5727958,16.8275978 C12.7046842,16.6934482 12.7727043,16.5091758 12.7596074,16.3215082 C12.7165841,15.9286377 12.384852,15.6444575 11.3409712,15.1021377 L11.0998144,14.9787288 C10.2970905,14.5620822 9.84761038,14.2688446 9.54871177,13.9654172 C9.22603713,13.6382138 9.06526592,13.2838378 9.01092071,12.7811447 C8.95598646,12.2785693 9.10989803,11.7754913 9.43662477,11.3896811 C9.7604316,10.9911496 10.2404809,10.6956476 10.7873295,10.5575202 L10.8801692,10.5337442 L10.8801692,9.59176071 C10.9001326,9.25935363 11.1755296,9 11.5085356,9 Z M21.7499612,1.49999826 C22.1630642,1.49999826 22.5000017,1.83619099 22.5000017,2.25001119 L22.5000017,6.75000603 C22.5000017,7.16382624 22.1630917,7.50001896 21.7499888,7.50001896 L21.1171895,7.50001896 L21.1171895,5.22584226 C21.4731339,5.16724923 21.7499888,4.87207714 21.7499888,4.49927757 C21.7499888,4.08474012 21.4145409,3.74926464 20.9999707,3.74926464 L2.99999655,3.74926464 C2.5854591,3.74926464 2.24998362,4.08471252 2.24998362,4.49927757 C2.24998362,4.87207714 2.52683847,5.16724921 2.88278289,5.22584226 L2.88278289,7.50001896 L2.24998362,7.50001896 C1.83688065,7.50001896 1.49997068,7.16379863 1.49997068,6.74997843 L1.49997068,2.25001119 C1.49997068,1.83619099 1.83688065,1.49999826 2.24998362,1.49999826 L21.7499612,1.49999826 Z" id="形状" fill="#E4E5E6" fill-rule="nonzero"></path>
            </g>
        </g>
    </g>
</svg>